<svg width="1024" height="1024" viewBox="0 0 1024 1024" xmlns="http://www.w3.org/2000/svg">
  <defs>
    <radialGradient id="bgGlow" cx="50%" cy="50%" r="50%">
      <stop offset="0%" stop-color="#4de3ff" stop-opacity="0.35"/>
      <stop offset="55%" stop-color="#b400ff" stop-opacity="0.14"/>
      <stop offset="100%" stop-color="#b400ff" stop-opacity="0"/>
    </radialGradient>
    <linearGradient id="chromeU" x1="150" y1="150" x2="880" y2="880" gradientUnits="userSpaceOnUse">
      <stop offset="0%"  stop-color="#ffffff"/>
      <stop offset="20%" stop-color="#c8daea"/>
      <stop offset="40%" stop-color="#6d8098"/>
      <stop offset="52%" stop-color="#2e3a4c"/>
      <stop offset="66%" stop-color="#7d92aa"/>
      <stop offset="85%" stop-color="#e9f5ff"/>
      <stop offset="100%" stop-color="#8ea3ba"/>
    </linearGradient>
    <radialGradient id="face" cx="42%" cy="36%" r="80%">
      <stop offset="0%" stop-color="#1d2536"/>
      <stop offset="55%" stop-color="#0e1424"/>
      <stop offset="100%" stop-color="#070a12"/>
    </radialGradient>
    <linearGradient id="gold" x1="0%" y1="0%" x2="0%" y2="100%">
      <stop offset="0%" stop-color="#fff0a0"/>
      <stop offset="45%" stop-color="#e0ac1c"/>
      <stop offset="100%" stop-color="#7d5a06"/>
    </linearGradient>
  </defs>
  <circle cx="512" cy="512" r="492" fill="url(#bgGlow)"/>
  <circle cx="512" cy="512" r="418" fill="none" stroke="#ff00ff" stroke-width="38" opacity="0.13"/>
  <circle cx="512" cy="512" r="418" fill="none" stroke="#ff00ff" stroke-width="18" opacity="0.32"/>
  <circle cx="512" cy="512" r="418" fill="none" stroke="#ff2bd6" stroke-width="8" opacity="0.9"/>
  <circle cx="512" cy="512" r="418" fill="none" stroke="#ffd2f4" stroke-width="3"/>
  <circle cx="512" cy="512" r="380" fill="url(#chromeU)" stroke="#0a0e16" stroke-width="5"/>
  <path d="M 212 336 A 352 352 0 0 1 502 162" fill="none" stroke="#ffffff" stroke-width="22" opacity="0.5" stroke-linecap="round"/>
  <g id="bezelBolts">
    <g id="bb"><circle cx="512" cy="164" r="13" fill="url(#chromeU)" stroke="#0a0e16" stroke-width="2.5"/><circle cx="508" cy="160" r="4.5" fill="#ffffff" opacity="0.9"/></g>
    <use href="#bb" transform="rotate(60 512 512)"/>
    <use href="#bb" transform="rotate(120 512 512)"/>
    <use href="#bb" transform="rotate(180 512 512)"/>
    <use href="#bb" transform="rotate(240 512 512)"/>
    <use href="#bb" transform="rotate(300 512 512)"/>
  </g>
  <circle cx="512" cy="512" r="318" fill="url(#face)" stroke="#0a0e16" stroke-width="6"/>
  <circle cx="512" cy="512" r="318" fill="none" stroke="url(#gold)" stroke-width="6"/>
  <g id="ticks" stroke="#bfe9ff" stroke-linecap="round">
    <g id="tickMaj"><line x1="512" y1="262" x2="512" y2="316" stroke-width="10"/></g>
    <use href="#tickMaj" transform="rotate(-135 512 512)"/>
    <use href="#tickMaj" transform="rotate(-90 512 512)"/>
    <use href="#tickMaj" transform="rotate(-45 512 512)"/>
    <use href="#tickMaj" transform="rotate(45 512 512)"/>
    <use href="#tickMaj" transform="rotate(90 512 512)"/>
    <g id="tickMin" stroke-width="5" opacity="0.7">
      <line x1="512" y1="262" x2="512" y2="296" transform="rotate(-112 512 512)"/>
      <line x1="512" y1="262" x2="512" y2="296" transform="rotate(-67 512 512)"/>
      <line x1="512" y1="262" x2="512" y2="296" transform="rotate(-22 512 512)"/>
      <line x1="512" y1="262" x2="512" y2="296" transform="rotate(22 512 512)"/>
      <line x1="512" y1="262" x2="512" y2="296" transform="rotate(67 512 512)"/>
      <line x1="512" y1="262" x2="512" y2="296" transform="rotate(112 512 512)"/>
    </g>
  </g>
  <g fill="none">
    <path d="M 682 288 A 286 286 0 0 1 794 480" stroke="#ff00ff" stroke-width="44" opacity="0.2"/>
    <path d="M 682 288 A 286 286 0 0 1 794 480" stroke="#ff2bd6" stroke-width="26" opacity="0.85"/>
    <path d="M 682 288 A 286 286 0 0 1 794 480" stroke="#ffd2f4" stroke-width="8" opacity="0.9"/>
  </g>
  <g transform="rotate(96 512 512)">
    <path d="M 512 512 L 496 540 L 512 236 L 528 540 Z" fill="#ff2bd6" stroke="#7a0d63" stroke-width="3"/>
    <path d="M 509 300 L 512 246 L 515 300 Z" fill="#ffd2f4"/>
  </g>
  <circle cx="512" cy="512" r="74" fill="url(#chromeU)" stroke="#0a0e16" stroke-width="4"/>
  <circle cx="512" cy="512" r="46" fill="url(#gold)" stroke="#0a0e16" stroke-width="3"/>
  <circle cx="504" cy="502" r="11" fill="#ffffff" opacity="0.8"/>
  <path d="M 300 340 A 280 280 0 0 1 640 262" fill="none" stroke="#ffffff" stroke-width="30" opacity="0.10" stroke-linecap="round"/>
  <ellipse cx="400" cy="350" rx="190" ry="80" fill="#ffffff" opacity="0.05" transform="rotate(-33 400 350)"/>
</svg>
