<svg width="1024" height="1024" viewBox="0 0 1024 1024" xmlns="http://www.w3.org/2000/svg">
  <defs>
    <radialGradient id="bgGlow" cx="50%" cy="50%" r="50%">
      <stop offset="0%" stop-color="#ff9a2e" stop-opacity="0.16"/>
      <stop offset="60%" stop-color="#ff9a2e" stop-opacity="0.05"/>
      <stop offset="100%" stop-color="#ff9a2e" stop-opacity="0"/>
    </radialGradient>
    <linearGradient id="chromeU" x1="150" y1="150" x2="880" y2="880" gradientUnits="userSpaceOnUse">
      <stop offset="0%"  stop-color="#ffffff"/>
      <stop offset="20%" stop-color="#c8daea"/>
      <stop offset="40%" stop-color="#6d8098"/>
      <stop offset="52%" stop-color="#2e3a4c"/>
      <stop offset="66%" stop-color="#7d92aa"/>
      <stop offset="85%" stop-color="#e9f5ff"/>
      <stop offset="100%" stop-color="#8ea3ba"/>
    </linearGradient>
    <linearGradient id="gunmetal" x1="150" y1="150" x2="880" y2="880" gradientUnits="userSpaceOnUse">
      <stop offset="0%" stop-color="#8fa2b8"/>
      <stop offset="40%" stop-color="#39465c"/>
      <stop offset="65%" stop-color="#161d2c"/>
      <stop offset="100%" stop-color="#4a5a72"/>
    </linearGradient>
    <radialGradient id="barrel" cx="40%" cy="35%" r="75%">
      <stop offset="0%" stop-color="#232c40"/>
      <stop offset="55%" stop-color="#121828"/>
      <stop offset="100%" stop-color="#080c16"/>
    </radialGradient>
    <linearGradient id="gold" x1="0%" y1="0%" x2="0%" y2="100%">
      <stop offset="0%" stop-color="#fff0a0"/>
      <stop offset="45%" stop-color="#e0ac1c"/>
      <stop offset="100%" stop-color="#7d5a06"/>
    </linearGradient>
  </defs>
  <circle cx="512" cy="512" r="486" fill="url(#bgGlow)"/>
  <circle cx="512" cy="512" r="352" fill="none" stroke="url(#chromeU)" stroke-width="92"/>
  <circle cx="512" cy="512" r="398" fill="none" stroke="#0a0e16" stroke-width="5"/>
  <circle cx="512" cy="512" r="306" fill="none" stroke="#0a0e16" stroke-width="5"/>
  <circle cx="512" cy="512" r="330" fill="none" stroke="#131a29" stroke-width="30" opacity="0.85"/>
  <path d="M 200 330 A 366 366 0 0 1 496 148" fill="none" stroke="#ffffff" stroke-width="24" opacity="0.5" stroke-linecap="round"/>
  <circle cx="512" cy="512" r="352" fill="none" stroke="#ff9a2e" stroke-width="5" opacity="0.75" stroke-dasharray="6 26"/>
  <g id="revLeds">
    <g id="ledG"><circle cx="512" cy="182" r="11" fill="#35ff6a"/><circle cx="512" cy="182" r="20" fill="#35ff6a" opacity="0.25"/></g>
    <use href="#ledG" transform="rotate(-75 512 512)"/>
    <use href="#ledG" transform="rotate(-60 512 512)"/>
    <use href="#ledG" transform="rotate(-45 512 512)"/>
    <use href="#ledG" transform="rotate(-30 512 512)"/>
    <g id="ledA"><circle cx="512" cy="182" r="11" fill="#ffb84d"/><circle cx="512" cy="182" r="20" fill="#ffb84d" opacity="0.25"/></g>
    <use href="#ledA" transform="rotate(15 512 512)"/>
    <use href="#ledA" transform="rotate(30 512 512)"/>
    <g id="ledR"><circle cx="512" cy="182" r="11" fill="#ff3355"/><circle cx="512" cy="182" r="20" fill="#ff3355" opacity="0.25"/></g>
    <use href="#ledR" transform="rotate(60 512 512)"/>
    <use href="#ledR" transform="rotate(75 512 512)"/>
  </g>
  <g transform="rotate(-15 512 512)"><circle cx="512" cy="182" r="11" fill="#35ff6a"/><circle cx="512" cy="182" r="20" fill="#35ff6a" opacity="0.25"/></g>
  <g transform="rotate(45 512 512)"><circle cx="512" cy="182" r="11" fill="#ff3355"/><circle cx="512" cy="182" r="20" fill="#ff3355" opacity="0.25"/></g>
  <ellipse cx="222" cy="512" rx="28" ry="60" fill="url(#gunmetal)" stroke="#0a0e16" stroke-width="4"/>
  <ellipse cx="802" cy="512" rx="28" ry="60" fill="url(#gunmetal)" stroke="#0a0e16" stroke-width="4"/>
  <rect x="236" y="798" width="552" height="120" rx="34" fill="url(#gunmetal)" stroke="#0a0e16" stroke-width="5"/>
  <path d="M 262 812 L 762 812" stroke="url(#chromeU)" stroke-width="10" fill="none" stroke-linecap="round"/>
  <path d="M 300 862 L 724 862" stroke="#ff9a2e" stroke-width="4" opacity="0.6" fill="none" stroke-dasharray="6 22"/>
  <rect x="492" y="112" width="40" height="98" rx="10" fill="#e8273f" stroke="#5a0f18" stroke-width="4"/>
  <rect x="506" y="120" width="8" height="82" rx="4" fill="#ffd9de" opacity="0.85"/>
  <g id="sp">
    <path d="M 604 484 L 604 540 L 806 526 L 806 498 Z" fill="url(#gunmetal)" stroke="#0a0e16" stroke-width="4"/>
    <path d="M 612 494 L 612 530 L 794 520 L 794 504 Z" fill="url(#chromeU)"/>
  </g>
  <use href="#sp" transform="rotate(90 512 512)"/>
  <use href="#sp" transform="rotate(180 512 512)"/>
  <g>
    <circle cx="700" cy="497" r="11" fill="#00e5ff"/><circle cx="700" cy="497" r="19" fill="#00e5ff" opacity="0.25"/>
    <circle cx="700" cy="527" r="11" fill="#ff2bd6"/><circle cx="700" cy="527" r="19" fill="#ff2bd6" opacity="0.25"/>
    <circle cx="324" cy="497" r="11" fill="#ff2bd6"/><circle cx="324" cy="497" r="19" fill="#ff2bd6" opacity="0.25"/>
    <circle cx="324" cy="527" r="11" fill="#00e5ff"/><circle cx="324" cy="527" r="19" fill="#00e5ff" opacity="0.25"/>
  </g>
  <circle cx="512" cy="512" r="112" fill="url(#gunmetal)" stroke="#0a0e16" stroke-width="5"/>
  <circle cx="512" cy="512" r="112" fill="none" stroke="url(#gold)" stroke-width="7"/>
  <rect x="452" y="480" width="120" height="64" rx="12" fill="#0b111e" stroke="#ff9a2e" stroke-width="3.5"/>
  <g fill="#ff9a2e">
    <rect x="468" y="520" width="18" height="12" rx="3"/>
    <rect x="492" y="508" width="18" height="24" rx="3"/>
    <rect x="516" y="496" width="18" height="36" rx="3"/>
    <rect x="540" y="490" width="18" height="42" rx="3" opacity="0.5"/>
  </g>
  <ellipse cx="380" cy="300" rx="170" ry="70" fill="#ffffff" opacity="0.06" transform="rotate(-35 380 300)"/>
</svg>
