<svg width="1024" height="1024" viewBox="0 0 1024 1024" xmlns="http://www.w3.org/2000/svg">
  <defs>
    <radialGradient id="bgGlow" cx="45%" cy="50%" r="55%">
      <stop offset="0%" stop-color="#5dff3c" stop-opacity="0.18"/>
      <stop offset="60%" stop-color="#5dff3c" stop-opacity="0.06"/>
      <stop offset="100%" stop-color="#5dff3c" stop-opacity="0"/>
    </radialGradient>
    <linearGradient id="chromeU" x1="150" y1="150" x2="880" y2="880" gradientUnits="userSpaceOnUse">
      <stop offset="0%"  stop-color="#ffffff"/>
      <stop offset="20%" stop-color="#c8daea"/>
      <stop offset="40%" stop-color="#6d8098"/>
      <stop offset="52%" stop-color="#2e3a4c"/>
      <stop offset="66%" stop-color="#7d92aa"/>
      <stop offset="85%" stop-color="#e9f5ff"/>
      <stop offset="100%" stop-color="#8ea3ba"/>
    </linearGradient>
    <linearGradient id="gunmetal" x1="150" y1="150" x2="880" y2="880" gradientUnits="userSpaceOnUse">
      <stop offset="0%" stop-color="#8fa2b8"/>
      <stop offset="40%" stop-color="#39465c"/>
      <stop offset="65%" stop-color="#161d2c"/>
      <stop offset="100%" stop-color="#4a5a72"/>
    </linearGradient>
    <radialGradient id="barrel" cx="40%" cy="35%" r="75%">
      <stop offset="0%" stop-color="#232c40"/>
      <stop offset="55%" stop-color="#121828"/>
      <stop offset="100%" stop-color="#080c16"/>
    </radialGradient>
    <linearGradient id="gold" x1="0%" y1="0%" x2="0%" y2="100%">
      <stop offset="0%" stop-color="#fff0a0"/>
      <stop offset="45%" stop-color="#e0ac1c"/>
      <stop offset="100%" stop-color="#7d5a06"/>
    </linearGradient>
  </defs>
  <circle cx="512" cy="512" r="486" fill="url(#bgGlow)"/>
  <ellipse cx="660" cy="512" rx="330" ry="180" fill="#5dff3c" opacity="0.10"/>
  <rect x="86" y="318" width="290" height="388" rx="44" fill="url(#gunmetal)" stroke="#0a0e16" stroke-width="6"/>
  <path d="M 110 344 L 340 336" stroke="#ffffff" stroke-width="12" opacity="0.45" stroke-linecap="round"/>
  <g fill="#0b111e" stroke="#0a0e16" stroke-width="3">
    <rect x="120" y="392" width="180" height="20" rx="10"/>
    <rect x="120" y="432" width="180" height="20" rx="10"/>
    <rect x="120" y="472" width="180" height="20" rx="10"/>
  </g>
  <g fill="url(#gold)" stroke="#0a0e16" stroke-width="3">
    <circle cx="116" cy="348" r="11"/><circle cx="346" cy="348" r="11"/>
    <circle cx="116" cy="676" r="11"/><circle cx="346" cy="676" r="11"/>
  </g>
  <rect x="120" y="600" width="180" height="70" rx="16" fill="#0b111e" stroke="#5dff3c" stroke-width="3.5"/>
  <g fill="#5dff3c">
    <rect x="136" y="642" width="14" height="16" rx="3"/>
    <rect x="158" y="630" width="14" height="28" rx="3"/>
    <rect x="180" y="618" width="14" height="40" rx="3"/>
    <rect x="202" y="612" width="14" height="46" rx="3" opacity="0.55"/>
  </g>
  <rect x="352" y="360" width="66" height="304" rx="20" fill="url(#chromeU)" stroke="#0a0e16" stroke-width="5"/>
  <circle cx="452" cy="512" r="152" fill="url(#chromeU)" stroke="#0a0e16" stroke-width="6"/>
  <circle cx="452" cy="512" r="112" fill="url(#barrel)" stroke="#0a0e16" stroke-width="5"/>
  <circle cx="452" cy="512" r="112" fill="none" stroke="url(#gold)" stroke-width="5"/>
  <circle cx="452" cy="512" r="78" fill="#031006"/>
  <circle cx="452" cy="512" r="78" fill="none" stroke="#5dff3c" stroke-width="6" opacity="0.9"/>
  <circle cx="452" cy="512" r="78" fill="none" stroke="#5dff3c" stroke-width="16" opacity="0.22"/>
  <path d="M 470 402 C 700 348 866 428 952 512 C 866 596 700 676 470 622 Z" fill="#5dff3c" opacity="0.22"/>
  <path d="M 478 434 C 686 398 826 458 908 512 C 826 566 686 626 478 590 Z" fill="#5dff3c" opacity="0.5"/>
  <path d="M 486 462 C 664 440 786 480 862 512 C 786 544 664 584 486 562 Z" fill="#b8ffa0" opacity="0.85"/>
  <path d="M 494 484 C 642 472 744 496 812 512 C 744 528 642 552 494 540 Z" fill="#ffffff" opacity="0.95"/>
  <g fill="#7dfcff" opacity="0.95">
    <polygon points="596,512 616,494 636,512 616,530"/>
    <polygon points="682,512 698,498 714,512 698,526"/>
    <polygon points="756,512 769,501 782,512 769,523"/>
  </g>
  <g fill="#5dff3c">
    <circle cx="900" cy="446" r="7" opacity="0.9"/>
    <circle cx="936" cy="540" r="6" opacity="0.8"/>
    <circle cx="884" cy="592" r="5" opacity="0.7"/>
  </g>
  <ellipse cx="240" cy="360" rx="120" ry="46" fill="#ffffff" opacity="0.06" transform="rotate(-22 240 360)"/>
</svg>
