<svg width="1024" height="1024" viewBox="0 0 1024 1024" xmlns="http://www.w3.org/2000/svg">
  <defs>
    <radialGradient id="bgGlow" cx="50%" cy="50%" r="50%">
      <stop offset="0%" stop-color="#4de3ff" stop-opacity="0.4"/>
      <stop offset="55%" stop-color="#b400ff" stop-opacity="0.16"/>
      <stop offset="100%" stop-color="#b400ff" stop-opacity="0"/>
    </radialGradient>
    <linearGradient id="chromeRing" x1="0%" y1="0%" x2="70%" y2="100%">
      <stop offset="0%"  stop-color="#ffffff"/>
      <stop offset="18%" stop-color="#c2d4e6"/>
      <stop offset="38%" stop-color="#6d8098"/>
      <stop offset="52%" stop-color="#2e3a4c"/>
      <stop offset="66%" stop-color="#7d92aa"/>
      <stop offset="84%" stop-color="#e9f5ff"/>
      <stop offset="100%" stop-color="#8ea3ba"/>
    </linearGradient>
    <radialGradient id="faceShade" cx="35%" cy="30%" r="80%">
      <stop offset="0%" stop-color="#3d4a63"/>
      <stop offset="45%" stop-color="#1a2233"/>
      <stop offset="100%" stop-color="#0c111d"/>
    </radialGradient>
    <linearGradient id="chromeW" x1="0%" y1="0%" x2="0%" y2="100%">
      <stop offset="0%"  stop-color="#ffffff"/>
      <stop offset="32%" stop-color="#cfe6ff"/>
      <stop offset="50%" stop-color="#7e93ad"/>
      <stop offset="56%" stop-color="#33405a"/>
      <stop offset="78%" stop-color="#aac2dc"/>
      <stop offset="100%" stop-color="#f2faff"/>
    </linearGradient>
    <linearGradient id="gold" x1="0%" y1="0%" x2="0%" y2="100%">
      <stop offset="0%" stop-color="#fff0a0"/>
      <stop offset="45%" stop-color="#e0ac1c"/>
      <stop offset="100%" stop-color="#7d5a06"/>
    </linearGradient>
  </defs>
  <circle cx="512" cy="512" r="486" fill="url(#bgGlow)"/>
  <circle cx="512" cy="512" r="430" fill="none" stroke="#ff00ff" stroke-width="46" opacity="0.12"/>
  <circle cx="512" cy="512" r="430" fill="none" stroke="#ff00ff" stroke-width="26" opacity="0.3"/>
  <circle cx="512" cy="512" r="430" fill="none" stroke="#ff2bd6" stroke-width="12" opacity="0.85"/>
  <circle cx="512" cy="512" r="430" fill="none" stroke="#ffc4f4" stroke-width="4" opacity="0.95"/>
  <circle cx="512" cy="512" r="392" fill="none" stroke="#00ffff" stroke-width="40" opacity="0.14"/>
  <circle cx="512" cy="512" r="392" fill="none" stroke="#00ffff" stroke-width="20" opacity="0.35"/>
  <circle cx="512" cy="512" r="392" fill="none" stroke="#5cffff" stroke-width="9" opacity="0.9"/>
  <circle cx="512" cy="512" r="392" fill="none" stroke="#eaffff" stroke-width="3"/>
  <circle cx="512" cy="512" r="356" fill="url(#chromeRing)"/>
  <circle cx="512" cy="512" r="356" fill="none" stroke="#0a0e16" stroke-width="4" opacity="0.7"/>
  <path d="M 218 320 A 356 356 0 0 1 512 156" fill="none" stroke="#ffffff" stroke-width="26" opacity="0.5" stroke-linecap="round"/>
  <circle cx="512" cy="512" r="300" fill="none" stroke="#0a0e16" stroke-width="5" opacity="0.75"/>
  <circle cx="512" cy="512" r="292" fill="url(#faceShade)"/>
  <circle cx="512" cy="512" r="292" fill="none" stroke="url(#gold)" stroke-width="9"/>
  <circle cx="512" cy="512" r="270" fill="none" stroke="#00ffff" stroke-width="2.5" opacity="0.45" stroke-dasharray="4 14"/>
  <circle cx="512" cy="512" r="236" fill="none" stroke="#00ffff" stroke-width="1.8" opacity="0.3" stroke-dasharray="2 10"/>
  <g id="boltG">
    <g id="bolt">
      <circle cx="512" cy="184" r="19" fill="url(#chromeRing)" stroke="#0a0e16" stroke-width="2.5"/>
      <circle cx="506" cy="178" r="6.5" fill="#ffffff" opacity="0.9"/>
    </g>
    <use href="#bolt" transform="rotate(45 512 512)"/>
    <use href="#bolt" transform="rotate(90 512 512)"/>
    <use href="#bolt" transform="rotate(135 512 512)"/>
    <use href="#bolt" transform="rotate(180 512 512)"/>
    <use href="#bolt" transform="rotate(225 512 512)"/>
    <use href="#bolt" transform="rotate(270 512 512)"/>
    <use href="#bolt" transform="rotate(315 512 512)"/>
  </g>
  <g fill="none" stroke-linecap="round" stroke-linejoin="round">
    <path d="M 318 372 L 422 668 L 512 448 L 602 668 L 706 372" stroke="#ff00ff" stroke-width="86" opacity="0.14"/>
    <path d="M 318 372 L 422 668 L 512 448 L 602 668 L 706 372" stroke="#ff00ff" stroke-width="56" opacity="0.22"/>
    <path d="M 318 372 L 422 668 L 512 448 L 602 668 L 706 372" stroke="#00ffff" stroke-width="38" opacity="0.4"/>
    <path d="M 318 372 L 422 668 L 512 448 L 602 668 L 706 372" stroke="url(#gold)" stroke-width="24"/>
    <path d="M 318 372 L 422 668 L 512 448 L 602 668 L 706 372" stroke="url(#chromeW)" stroke-width="13"/>
    <path d="M 318 372 L 422 668 L 512 448 L 602 668 L 706 372" stroke="#ffffff" stroke-width="3.5" opacity="0.85"/>
  </g>
  <ellipse cx="400" cy="340" rx="200" ry="90" fill="#ffffff" opacity="0.07" transform="rotate(-32 400 340)"/>
</svg>
